<?xml version="1.0" standalone="no"?>
<!DOCTYPE svg PUBLIC "-//W3C//DTD SVG 20010904//EN"
 "http://www.w3.org/TR/2001/REC-SVG-20010904/DTD/svg10.dtd">
<svg version="1.0" xmlns="http://www.w3.org/2000/svg"
 width="700.000000pt" height="700.000000pt" viewBox="0 0 700.000000 700.000000"
 preserveAspectRatio="xMidYMid meet">
<metadata>
Created by potrace 1.14, written by Peter Selinger 2001-2017
</metadata>
<g transform="translate(0.000000,700.000000) scale(0.100000,-0.100000)"
fill="#000000" stroke="none">
<path d="M3278 6996 c-1 -2 -41 -6 -88 -10 -87 -7 -105 -9 -225 -27 -143 -22
-158 -25 -305 -60 -981 -239 -1832 -915 -2283 -1815 -137 -273 -250 -593 -301
-854 -8 -41 -17 -84 -19 -95 -3 -11 -8 -40 -12 -65 -3 -25 -9 -58 -11 -74 -3
-16 -7 -50 -9 -75 -3 -25 -8 -82 -12 -126 -10 -100 -10 -496 0 -590 4 -38 10
-99 13 -135 5 -54 41 -263 57 -335 136 -591 402 -1111 800 -1562 95 -107 258
-267 347 -339 19 -16 41 -35 49 -43 8 -7 49 -39 90 -70 42 -31 78 -59 81 -62
29 -34 510 -319 538 -319 2 0 38 -16 79 -35 41 -19 78 -35 82 -35 4 0 25 -9
47 -19 66 -32 365 -129 444 -145 14 -3 34 -7 45 -10 105 -26 195 -43 330 -62
22 -3 51 -8 65 -10 171 -26 656 -25 850 2 19 3 51 7 70 10 346 48 688 151
1009 305 204 97 286 146 558 330 157 106 462 393 618 580 337 405 596 914 710
1396 9 37 18 73 19 78 2 6 6 28 11 50 4 22 10 49 12 60 2 11 6 31 8 45 4 26
12 76 20 120 2 14 7 52 11 85 4 33 9 76 11 95 8 72 10 518 2 602 -15 161 -26
245 -54 393 -33 178 -107 429 -180 615 -48 121 -165 366 -212 445 -109 181
-236 370 -305 451 -116 138 -167 194 -262 289 -183 183 -325 299 -537 441 -75
50 -151 98 -168 105 -17 8 -31 17 -31 21 0 5 -5 8 -10 8 -6 0 -41 17 -78 38
-283 160 -742 314 -1092 368 -25 3 -54 8 -65 10 -10 2 -49 6 -85 10 -36 3 -76
8 -90 11 -27 5 -536 14 -542 9z m527 -570 c28 -3 64 -8 80 -10 17 -3 48 -8 70
-12 443 -66 889 -247 1256 -511 51 -36 101 -73 112 -82 398 -321 699 -719 897
-1186 97 -231 184 -581 207 -841 16 -173 9 -530 -13 -674 -74 -498 -227 -894
-492 -1280 -199 -289 -497 -586 -762 -759 -30 -20 -57 -38 -60 -41 -11 -12
-200 -120 -275 -158 -226 -112 -539 -220 -750 -256 -158 -27 -212 -35 -285
-42 -157 -16 -612 -8 -680 11 -8 2 -35 7 -60 10 -38 5 -209 38 -261 50 -154
35 -446 143 -614 227 -439 221 -838 573 -1116 986 -38 56 -69 107 -69 111 0 5
-3 11 -7 13 -15 6 -138 243 -190 363 -57 133 -113 301 -148 445 -9 34 -46 227
-51 260 -2 19 -6 44 -9 55 -26 130 -27 634 0 785 2 14 11 68 20 120 36 213
110 463 199 670 58 133 200 392 258 470 11 14 49 66 85 115 176 239 416 472
668 647 170 118 415 250 597 323 187 74 470 150 635 170 26 4 55 8 63 10 8 2
53 7 100 11 47 3 87 8 88 9 6 5 452 -3 507 -9z"/>
<path d="M3348 5435 c-2 -1 -39 -5 -83 -9 -44 -4 -89 -9 -100 -11 -11 -3 -36
-7 -55 -10 -246 -36 -483 -125 -680 -253 -73 -49 -234 -196 -280 -257 -126
-167 -212 -410 -222 -620 l-3 -70 488 -1 487 -2 0 32 c0 98 48 235 109 311 80
98 215 169 366 191 242 35 484 -30 612 -165 99 -105 133 -198 140 -388 l6
-133 -29 -1 c-16 0 -36 -2 -44 -4 -8 -1 -46 -6 -85 -10 -38 -4 -72 -8 -75 -10
-3 -1 -36 -6 -75 -9 -38 -4 -83 -9 -100 -11 -16 -2 -59 -7 -95 -10 -36 -4 -72
-8 -80 -10 -8 -2 -44 -6 -80 -9 -36 -4 -76 -9 -90 -11 -14 -2 -45 -7 -70 -10
-25 -3 -70 -10 -100 -16 -30 -5 -68 -11 -85 -14 -16 -3 -61 -12 -100 -20 -38
-8 -79 -17 -90 -19 -139 -27 -377 -110 -531 -186 -222 -109 -380 -238 -484
-397 -50 -76 -105 -197 -115 -253 -3 -18 -8 -36 -10 -40 -18 -29 -27 -286 -13
-382 17 -119 78 -275 146 -374 200 -293 580 -455 1053 -449 177 3 246 11 400
50 255 64 453 186 611 375 25 30 50 65 57 77 9 17 20 22 46 21 l35 -1 0 -219
0 -218 498 2 497 3 -1 1170 c0 644 -3 1201 -7 1238 -46 447 -331 812 -772 987
-252 100 -470 140 -792 144 -111 2 -204 2 -205 1z m779 -2180 c-4 -170 -7
-198 -30 -268 -64 -192 -194 -344 -377 -437 -47 -24 -180 -72 -180 -65 0 3
-11 0 -25 -5 -62 -24 -260 -31 -365 -14 -94 16 -122 24 -188 58 -162 82 -240
242 -207 426 33 190 241 337 560 395 29 6 241 34 300 40 28 3 66 7 85 10 19 3
55 7 80 10 25 3 65 8 90 11 49 7 63 8 155 19 33 4 62 8 63 10 2 2 13 3 24 2
20 -1 20 -6 15 -192z"/>
</g>
</svg>
